<svg width="1112" height="708" viewBox="0 0 1112 708" fill="none" xmlns="http://www.w3.org/2000/svg">
<path fill-rule="evenodd" clip-rule="evenodd" d="M1002.96 473.683V473.683L999.171 477.325L995.407 480.918L991.669 484.463L987.958 487.962L984.277 491.417L980.63 494.829L977.017 498.2L973.442 501.531L969.905 504.824L966.408 508.082L962.952 511.305L959.538 514.495L956.166 517.654L952.837 520.784L949.551 523.886L946.307 526.962L943.105 530.013L939.945 533.041L936.825 536.047L933.744 539.033L930.701 542.001L927.694 544.951L924.722 547.884L921.782 550.803L918.873 553.707L915.992 556.598L913.136 559.477L910.304 562.345L907.493 565.202L904.699 568.049L901.92 570.887L899.153 573.715L896.395 576.535L893.643 579.347L890.893 582.151L888.143 584.946L885.389 587.734L882.629 590.513L879.858 593.284L877.075 596.047L874.276 598.801L871.458 601.545L868.619 604.28L865.755 607.005L862.864 609.719L859.944 612.422L856.992 615.113L854.006 617.792L850.984 620.457L847.923 623.108L844.821 625.744L841.676 628.364L838.486 630.966L835.248 633.55L831.96 636.115L828.621 638.659L825.228 641.18L821.779 643.678L818.274 646.15L814.709 648.596L811.085 651.014L807.398 653.401L803.648 655.757L799.834 658.08L795.955 660.367L792.01 662.618L787.998 664.83L783.919 667.002L779.772 669.132L775.558 671.218L771.276 673.258L766.926 675.251L762.509 677.195L758.026 679.089L753.477 680.93L748.863 682.718L744.185 684.45L739.445 686.126L734.643 687.743L729.783 689.302L724.865 690.8L719.891 692.237L714.865 693.612L709.787 694.923L704.661 696.171L699.489 697.354L694.274 698.472L689.018 699.526L683.726 700.514L678.399 701.437L673.041 702.294L667.655 703.087L662.244 703.816L656.813 704.482L651.364 705.084L645.9 705.625L640.426 706.106L634.944 706.528L629.458 706.892L623.971 707.201L618.486 707.455L613.008 707.659L607.538 707.812L602.079 707.919L596.635 707.98L591.208 708L585.801 707.98L580.415 707.924L575.054 707.834L569.718 707.713L564.41 707.564L559.13 707.391L553.881 707.196L548.663 706.983L543.476 706.754L538.322 706.513L533.2 706.263L528.111 706.006L523.054 705.746L518.028 705.485L513.034 705.226L508.069 704.972L503.132 704.725L498.223 704.488L493.339 704.261L488.479 704.048L483.641 703.851L478.822 703.669L474.021 703.505L469.234 703.36L464.46 703.233L459.696 703.127L454.939 703.04L450.188 702.973L445.438 702.925L440.689 702.895L435.937 702.882L431.18 702.885L426.417 702.903L421.645 702.935L416.861 702.977L412.065 703.029L407.255 703.089L402.43 703.155L397.587 703.223L392.727 703.293L387.848 703.361L382.95 703.426L378.032 703.483L373.094 703.532L368.137 703.568L363.16 703.59L358.164 703.594L353.15 703.577L348.119 703.537L343.072 703.471L338.011 703.376L332.937 703.249L327.852 703.088L322.758 702.89L317.658 702.652L312.554 702.372L307.448 702.048L302.344 701.676L297.244 701.256L292.151 700.784L287.069 700.26L282 699.681L276.949 699.046L271.918 698.354L266.91 697.602L261.93 696.791L256.98 695.919L252.064 694.985L247.185 693.99L242.347 692.933L237.552 691.813L232.803 690.632L228.104 689.388L223.458 688.083L218.866 686.717L214.332 685.291L209.858 683.805L205.447 682.26L201.101 680.657L196.824 678.996L192.616 677.279L188.481 675.507L184.42 673.68L180.436 671.8L176.529 669.869L172.702 667.888L168.955 665.858L165.29 663.782L161.707 661.66L158.208 659.495L154.792 657.289L151.46 655.043L148.211 652.76L145.045 650.441L141.962 648.09L138.961 645.707L136.04 643.295L133.199 640.857L130.435 638.394L127.746 635.908L125.132 633.403L122.589 630.879L120.115 628.339L117.708 625.785L115.365 623.219L113.083 620.642L110.859 618.057L108.69 615.464L106.574 612.867L104.506 610.265L102.485 607.66L100.506 605.055L98.5678 602.448L96.6665 599.842L94.7997 597.238L92.9647 594.635L91.1593 592.034L89.3811 589.437L87.6284 586.842L85.8993 584.25L84.1921 581.662L82.5052 579.076L80.8368 576.494L79.1855 573.915L77.5498 571.338L75.9282 568.764L74.3195 566.193L72.7223 563.623L71.1356 561.056L69.5583 558.49L67.9895 555.924L66.4283 553.359L64.8741 550.794L63.3262 548.229L61.7843 545.662L60.2478 543.094L58.7166 540.523L57.1906 537.95L55.6697 535.373L54.1542 532.791L52.6441 530.205L51.1398 527.613L49.6418 525.014L48.1506 522.409L46.6668 519.797L45.1912 517.176L43.7246 514.546L42.2678 511.907L40.8217 509.258L39.3875 506.599L37.9662 503.928L36.5588 501.246L35.1665 498.551L33.7905 495.844L32.432 493.124L31.0921 490.39L29.7721 487.642L28.4732 484.88L27.1965 482.104L25.9432 479.312L24.7144 476.506L23.5112 473.683L22.3346 470.845L21.1856 467.991L20.0651 465.121L18.9738 462.234L17.9123 459.331L16.8813 456.41L15.8812 453.473L14.9124 450.518L13.9753 447.546L13.0701 444.556L12.1969 441.548L11.3557 438.522L10.5467 435.477L9.76959 432.414L9.02434 429.332L8.31072 426.23L7.62848 423.109L6.9773 419.967L6.35687 416.805L5.76681 413.622L5.20674 410.418L4.67628 407.191L4.17502 403.942L3.70261 400.67L3.2587 397.374L2.84296 394.054L2.45514 390.709L2.09504 387.339L1.76252 383.942L1.45754 380.518L1.18016 377.067L0.93054 373.587L0.708982 370.077L0.515912 366.538L0.351907 362.969L0.217706 359.368L0.114223 355.736L0.0425514 352.071L0.00397995 348.373L0 344.641L0.0323144 340.876L0.102845 337.076L0.213741 333.242L0.367381 329.373L0.566382 325.469L0.813595 321.531L1.11204 317.558L1.46479 313.55L1.87491 309.509L2.3455 305.434L2.87967 301.326L3.48053 297.186L4.1512 293.013L4.89479 288.809L5.71442 284.575L6.6132 280.31L7.59424 276.017L8.66062 271.695L9.81541 267.347L11.0617 262.972L12.4025 258.573L13.8408 254.151L15.3795 249.706L17.0217 245.241L18.7703 240.756L20.628 236.254L22.5977 231.736L24.6822 227.203L26.8841 222.658L29.2062 218.103L31.6508 213.539L34.2206 208.968L36.9179 204.393L39.7452 199.815L42.7045 195.238L45.798 190.662L49.0279 186.092L52.3959 181.529L55.9039 176.975L59.5536 172.434L63.3465 167.907L67.2841 163.398L71.3677 158.91L75.5983 154.445L79.977 150.006L84.5046 145.596L89.1818 141.218L94.0091 136.875L98.9868 132.569L104.115 128.305L109.394 124.084L114.823 119.91L120.401 115.784L126.127 111.711L132 107.691L138.019 103.727L144.182 99.8217L150.487 95.9763L156.932 92.1927L163.515 88.4727L170.233 84.8177L177.084 81.2291L184.066 77.7084L191.176 74.2567L198.412 70.875L205.77 67.5643L213.247 64.3257L220.842 61.1598L228.551 58.0674L236.371 55.0492L244.299 52.1058L252.333 49.2378L260.469 46.4455L268.705 43.7295L277.039 41.0902L285.466 38.5279L293.984 36.043L302.591 33.6359L311.284 31.3069L320.06 29.0562L328.917 26.8844L337.851 24.7917L346.86 22.7784L355.942 20.8451L365.094 18.9922L374.314 17.2201L383.598 15.5294L392.945 13.9206L402.351 12.3945L411.814 10.9517L421.332 9.5931L430.903 8.31952L440.522 7.13195L450.188 6.03143L459.897 5.01913L469.648 4.09628L479.436 3.26411L489.26 2.52379L499.115 1.87644L508.999 1.32314L518.909 0.864892L528.841 0.502623L538.791 0.237203L548.757 0.069424L558.735 0L568.721 0.0295649L578.713 0.158669L588.706 0.387779L598.696 0.717271L608.681 1.14743L618.657 1.67847L628.619 2.31049L638.565 3.0435L648.491 3.87745L658.394 4.81215L668.269 5.84737L678.113 6.98277L687.924 8.21791L697.696 9.5523L707.428 10.9853L717.116 12.5164L726.756 14.1446L736.345 15.8693L745.88 17.6896L755.359 19.6044L764.777 21.6129L774.133 23.7139L783.423 25.9063L792.644 28.189L801.794 30.5607L810.87 33.0203L819.87 35.5665L828.791 38.1979L837.631 40.9132L846.387 43.7112L855.057 46.5904L863.639 49.5496L872.13 52.5872L880.529 55.702L888.833 58.8927L897.04 62.1581L905.148 65.4971L913.154 68.9089L921.056 72.3925L928.851 75.9472L936.536 79.5725L944.107 83.2677L951.563 87.0322L958.899 90.8656L966.112 94.7674L973.198 98.7372L980.155 102.775L986.977 106.879L993.662 111.05L1000.2 115.287L1006.6 119.59L1012.85 123.958L1018.94 128.39L1024.87 132.887L1030.64 137.446L1036.25 142.067L1041.68 146.749L1046.94 151.492L1052.01 156.293L1056.91 161.153L1061.61 166.068L1066.12 171.038L1070.44 176.061L1074.55 181.136L1078.47 186.26L1082.17 191.431L1085.67 196.648L1088.96 201.907L1092.03 207.207L1094.88 212.544L1097.52 217.917L1099.94 223.322L1102.13 228.756L1104.1 234.216L1105.86 239.699L1107.38 245.202L1108.69 250.721L1109.78 256.253L1110.65 261.795L1111.31 267.342L1111.75 272.891L1111.98 278.438L1112 283.981L1111.82 289.515L1111.44 295.037L1110.86 300.545L1110.1 306.033L1109.14 311.5L1108 316.943L1106.69 322.358L1105.2 327.742L1103.55 333.094L1101.74 338.409L1099.77 343.686L1097.65 348.922L1095.38 354.115L1092.98 359.263L1090.45 364.364L1087.79 369.416L1085.02 374.417L1082.13 379.366L1079.14 384.262L1076.04 389.102L1072.86 393.886L1069.59 398.614L1066.24 403.283L1062.81 407.894L1059.32 412.446L1055.77 416.938L1052.16 421.371L1048.5 425.743L1044.81 430.056L1041.08 434.309L1037.31 438.503L1033.52 442.638L1029.72 446.715L1025.9 450.733L1022.07 454.695L1018.23 458.601L1014.4 462.451L1010.58 466.248L1006.76 469.991L1002.96 473.683" fill="url(#paint0_linear_26_2)" fill-opacity="0.82"/>
<defs>
<linearGradient id="paint0_linear_26_2" x1="556" y1="0" x2="556" y2="708" gradientUnits="userSpaceOnUse">
<stop stop-color="#B4F7DD"/>
<stop offset="1" stop-color="#141D1A"/>
</linearGradient>
</defs>
</svg>
